<svg xmlns="http://www.w3.org/2000/svg" width="1880" height="1880" viewBox="0 0 1880 1880" version="1.1"><path d="M 869.500 345.035 C 845.119 347.199, 819.579 351.913, 798 358.234 C 753.746 371.196, 731.494 381.370, 706.500 400.072 C 693.749 409.613, 686.490 416.451, 673.967 430.716 C 658.500 448.335, 636.021 478.772, 633.826 485.069 C 633.036 487.336, 632.452 487.782, 631.157 487.107 C 624.071 483.410, 585.100 482.413, 568 485.492 C 562.775 486.433, 557.150 487.431, 555.500 487.710 C 551.111 488.454, 523.593 496.505, 513.336 500.046 C 492.481 507.247, 464.521 523.099, 440.695 541.230 C 405.136 568.291, 370.380 606.848, 347.156 645 C 339.585 657.438, 327.609 681.031, 322.506 693.562 C 320.504 698.478, 318.275 703.850, 317.554 705.500 C 316.028 708.991, 309.860 727.932, 307.573 736.154 C 306.708 739.264, 306 744.256, 306 747.249 C 306 754.089, 307.798 756, 314.234 756 C 318.587 756, 319.278 755.574, 328.430 747.250 C 350.039 727.597, 354.146 724.277, 369 714.453 C 377.525 708.814, 384.618 704.312, 384.763 704.447 C 385.337 704.984, 377.868 720.255, 373.414 727.651 C 367.100 738.135, 357.393 750.530, 350.762 756.573 C 332.472 773.244, 307.739 785.712, 282.500 790.984 C 270.367 793.518, 266.786 797.216, 269.073 804.851 C 269.745 807.094, 271.241 809.813, 272.398 810.894 C 276.857 815.062, 286.904 820.195, 296.496 823.206 C 304.862 825.831, 308.547 826.416, 319 826.774 C 325.875 827.009, 333.850 826.770, 336.721 826.242 C 340.502 825.548, 341.760 825.589, 341.281 826.392 C 340.917 827.001, 338.685 830.534, 336.321 834.242 C 330.559 843.281, 320.884 862.751, 317.559 872 C 314.917 879.347, 308.803 900.566, 307.617 906.500 C 307.287 908.150, 306.535 911.750, 305.946 914.500 C 297.572 953.560, 297.146 1000.333, 304.905 1028.713 C 306.244 1033.609, 309.122 1036, 313.675 1036 C 319.726 1036, 321.581 1034.288, 327.086 1023.621 C 333.119 1011.930, 339.570 1001.006, 345.394 992.616 L 349.478 986.731 351.180 1003.276 C 354.105 1031.712, 358.649 1048.199, 369.402 1069.405 C 392.425 1114.805, 434.378 1157.341, 477.104 1178.605 C 489.029 1184.540, 507.464 1190.726, 515.660 1191.543 L 522.500 1192.225 522.633 1204.862 C 523.076 1247.065, 544.375 1283.157, 580.131 1302.295 C 606.381 1316.345, 648.938 1316.570, 676.563 1302.804 L 682.626 1299.782 689.063 1303.043 C 695.350 1306.228, 711.062 1311.094, 727.880 1315.064 C 732.489 1316.152, 736.654 1317.286, 737.137 1317.585 C 737.619 1317.883, 735.089 1321.361, 731.514 1325.313 C 713.293 1345.459, 707.005 1359.244, 712.328 1367.375 C 715.065 1371.556, 720.028 1373.117, 732.554 1373.733 L 743.734 1374.284 739.488 1380.392 C 737.152 1383.751, 733.324 1389.648, 730.981 1393.495 C 726.230 1401.297, 707.852 1437.657, 703.180 1448.500 C 695.325 1466.727, 689.433 1481.610, 685.364 1493.500 C 682.917 1500.650, 680.493 1507.400, 679.978 1508.500 C 679.463 1509.600, 675.371 1521.975, 670.885 1536 L 662.728 1561.500 662.238 1575.750 C 661.896 1585.708, 662.078 1590, 662.843 1590 C 664.150 1590, 670.042 1581.040, 674.679 1572 C 676.513 1568.425, 682.292 1552.119, 687.522 1535.764 C 702.981 1487.419, 713.660 1460.602, 731.110 1426.311 C 743.593 1401.780, 752.313 1387.490, 761.944 1375.783 C 762.269 1375.389, 774.451 1375.481, 789.017 1375.989 C 820.407 1377.084, 836.455 1379.293, 856 1385.212 C 879.025 1392.184, 893.844 1395.826, 917.500 1400.328 C 921.900 1401.165, 930.675 1403.210, 937 1404.873 C 943.325 1406.535, 952.550 1408.404, 957.500 1409.027 C 986.278 1412.644, 1006.011 1416.284, 1014.869 1419.609 C 1018.372 1420.924, 1022.161 1422, 1023.289 1422 C 1024.450 1422, 1028.195 1424.753, 1031.920 1428.344 L 1038.500 1434.688 1048.593 1435.379 C 1054.370 1435.775, 1059.715 1435.667, 1061.093 1435.128 C 1062.417 1434.610, 1067.018 1430.319, 1071.317 1425.593 C 1075.617 1420.867, 1079.859 1417, 1080.745 1417 C 1081.631 1417, 1087.338 1415.480, 1093.428 1413.622 C 1113.641 1407.456, 1118.891 1406.522, 1150.500 1403.469 C 1164.800 1402.088, 1179.892 1400.313, 1184.037 1399.526 C 1195.713 1397.308, 1207.735 1392.635, 1225.864 1383.267 C 1235.014 1378.539, 1246.277 1373.187, 1250.894 1371.374 C 1260.712 1367.519, 1264 1364.848, 1264 1360.727 C 1264 1353.538, 1259.571 1348.620, 1238.672 1332.600 C 1229.515 1325.581, 1225.551 1322, 1226.937 1322 C 1228.088 1322, 1231.836 1321.284, 1235.265 1320.409 C 1238.694 1319.534, 1245.100 1317.914, 1249.500 1316.809 C 1306.329 1302.536, 1354.776 1283.066, 1389.405 1260.583 C 1420.879 1240.148, 1436.824 1214.592, 1437.187 1184 C 1437.256 1178.225, 1437.646 1173.275, 1438.054 1173 C 1438.462 1172.725, 1442.505 1169.139, 1447.037 1165.032 C 1457.097 1155.914, 1469.353 1141.516, 1477.190 1129.608 C 1483.349 1120.251, 1494.954 1097.292, 1496.959 1090.500 C 1497.608 1088.300, 1498.534 1085.600, 1499.015 1084.500 C 1500.359 1081.432, 1504.074 1067.157, 1505.132 1061 C 1506.731 1051.684, 1508.945 1018.866, 1508.437 1012 C 1507.314 996.813, 1505.363 984.789, 1501.898 971.706 C 1500.911 967.977, 1501.013 967.761, 1507.820 959.206 C 1530.926 930.165, 1545.824 897.176, 1552.172 861 C 1554.179 849.562, 1553.940 809.439, 1551.779 795 C 1550.833 788.675, 1549.874 782.150, 1549.648 780.500 C 1546.599 758.210, 1537.084 729.319, 1527.468 713.152 C 1516.025 693.915, 1495.230 670.804, 1476.302 656.286 L 1467.103 649.232 1475.802 643.444 C 1496.923 629.389, 1520.468 610.262, 1525.391 603.157 C 1529.138 597.750, 1528.840 590.698, 1524.735 587.644 C 1521.984 585.597, 1521.913 585.596, 1509.735 587.376 C 1492.304 589.923, 1479.030 590.381, 1459 589.124 C 1427.632 587.155, 1406.226 580.662, 1385.989 566.977 C 1380.014 562.936, 1368.549 551.299, 1364.467 545.129 L 1361.921 541.283 1369.571 533.891 C 1389.188 514.937, 1404.621 487.491, 1406.666 467.923 C 1407.207 462.743, 1407.032 462.072, 1404.376 459.154 C 1402.794 457.417, 1400.125 455.732, 1398.445 455.412 C 1395.903 454.926, 1394.560 455.507, 1390.445 458.874 C 1377.264 469.659, 1370.710 474.344, 1362.949 478.529 C 1346.138 487.594, 1329.807 492, 1313.013 492 C 1299.725 492, 1291.561 489.712, 1275.542 481.498 C 1269.643 478.474, 1264.221 476, 1263.492 476 C 1261.519 476, 1249.705 469.537, 1241.251 463.832 C 1237.164 461.074, 1224.748 451.960, 1213.660 443.578 C 1172.666 412.591, 1146.817 396.693, 1114.500 382.591 C 1073.713 364.792, 1016.593 350.987, 963 345.974 C 947.892 344.561, 882.269 343.902, 869.500 345.035 M 876.500 360.153 C 855.451 361.554, 824.147 366.625, 808.500 371.171 C 788.682 376.928, 763.370 385.693, 753.079 390.362 C 716.499 406.959, 690.608 430.292, 658.595 475.510 C 653.147 483.204, 647.447 490.850, 645.928 492.500 C 644.409 494.150, 643.016 496.602, 642.833 497.949 C 642.627 499.462, 641.232 501.137, 639.184 502.330 C 636.015 504.175, 635.593 504.189, 629.684 502.641 C 619.471 499.966, 611.164 499.015, 598 499.016 C 578.248 499.017, 569.578 500.211, 546.486 506.109 C 497.498 518.623, 457.625 542.403, 415.921 583.976 C 392.257 607.566, 378.465 624.512, 363.002 648.998 C 352.945 664.921, 338.858 692.886, 333.530 707.500 C 333.129 708.600, 331.280 713.659, 329.422 718.741 L 326.042 727.983 334.771 720.439 C 344.868 711.713, 360.804 700.619, 369.598 696.194 C 372.951 694.506, 379.245 692.216, 383.584 691.104 C 387.922 689.993, 391.632 688.605, 391.826 688.021 C 392.021 687.436, 393.465 686.294, 395.034 685.482 C 399.265 683.295, 402.630 684.912, 403.936 689.762 C 405.483 695.508, 402.248 705.426, 392.301 725.431 C 384.509 741.100, 372.051 758.183, 361.147 768.148 C 352.255 776.276, 335.773 787.467, 324.695 792.901 C 314.327 797.986, 297.539 804, 293.710 804 C 290.162 804, 293.010 805.586, 302 808.618 C 309.699 811.215, 311.677 811.472, 323 811.347 C 329.875 811.271, 336.711 810.733, 338.191 810.152 C 339.672 809.570, 344.397 808.782, 348.691 808.401 C 354.663 807.871, 357.141 807.174, 359.225 805.440 C 360.723 804.192, 363.553 802.643, 365.513 801.996 C 368.467 801.021, 369.484 801.087, 371.462 802.383 C 372.775 803.243, 374.131 804.836, 374.476 805.923 C 375.212 808.243, 373.130 812.675, 369.977 815.502 C 367.138 818.047, 356.590 831.616, 351.111 839.770 C 344.959 848.926, 333.606 872.116, 330.191 882.500 C 327.521 890.617, 326.083 896.089, 321.521 915.500 C 316.181 938.219, 313.534 977.358, 315.647 1002.355 L 316.294 1010.011 320.933 1002.255 C 332.555 982.826, 346.123 965.020, 350.774 963.094 C 353.158 962.106, 354.376 962.232, 358.170 963.858 C 360.667 964.929, 363.040 966.636, 363.441 967.653 C 363.843 968.669, 364.598 975.800, 365.119 983.500 C 367.976 1025.701, 371.811 1041.092, 386.170 1068 C 407.789 1108.509, 448.631 1148.217, 487.286 1166.307 C 497.517 1171.094, 522.275 1178.566, 524.123 1177.424 C 524.495 1177.194, 525.358 1174.642, 526.042 1171.753 C 531.690 1147.885, 554.440 1124.371, 584.203 1111.641 C 596.215 1106.503, 607.782 1104.720, 625.500 1105.275 C 641.412 1105.773, 654.961 1108.918, 663 1113.978 C 665.475 1115.536, 670.001 1117.317, 673.057 1117.936 C 677.058 1118.746, 681.304 1120.848, 688.221 1125.441 C 699.044 1132.627, 698.208 1132.882, 699.511 1121.992 C 700.106 1117.020, 699.811 1115.705, 696.482 1108.492 C 688.880 1092.018, 683.716 1075.945, 680.260 1058 C 678.093 1046.750, 678.136 1006.769, 680.330 993.500 C 682.279 981.705, 684.978 969.755, 685.975 968.500 C 686.412 967.950, 687.101 965.925, 687.507 964 C 689.367 955.170, 699.335 934.025, 707.777 921 C 742.223 867.851, 799.379 835.243, 861.102 833.527 C 867.921 833.337, 874.288 833.141, 875.250 833.091 C 876.559 833.023, 877 832.135, 877 829.565 C 877 822.698, 880.250 818, 884.999 818 C 888.167 818, 891.615 821.556, 892.670 825.912 C 893.015 827.336, 894.585 830.146, 896.159 832.158 C 898.600 835.276, 899.794 835.914, 904.261 836.488 C 913.360 837.655, 938.767 845.464, 947.145 849.669 C 949.700 850.951, 952.122 852, 952.527 852 C 954.119 852, 972.011 862.716, 981 869.054 C 986.225 872.738, 994.577 879.595, 999.561 884.292 L 1008.621 892.832 1014.926 882.666 C 1028.250 861.182, 1041.540 829.612, 1044.964 811.308 C 1047.297 798.833, 1048.933 777.567, 1049.085 757.728 C 1049.172 746.310, 1049.616 736.737, 1050.071 736.456 C 1050.527 736.175, 1053.138 737.194, 1055.873 738.721 C 1064.611 743.600, 1072.297 759.004, 1082.955 793 C 1095.839 834.096, 1101.920 861.499, 1107.918 905.500 C 1109.662 918.288, 1111.173 944.011, 1110.532 950 L 1109.944 955.500 1115.148 950 C 1140.599 923.102, 1156.138 895.882, 1163.954 864.500 C 1169.577 841.927, 1171.501 826.608, 1171.492 804.500 C 1171.481 778.586, 1169.182 764.338, 1159.714 731.500 C 1158.604 727.650, 1156.014 720.900, 1153.959 716.500 C 1148.513 704.842, 1148.473 704.575, 1151.614 701.049 C 1156.709 695.331, 1162.260 697.799, 1167.397 708.066 C 1169.349 711.968, 1173.202 717.629, 1175.960 720.647 C 1200.935 747.973, 1229.556 793.740, 1243.704 828.974 C 1246.680 836.385, 1249.256 842.589, 1249.428 842.762 C 1249.601 842.934, 1253.962 841.766, 1259.121 840.167 C 1277.964 834.323, 1295.248 831.765, 1314.914 831.907 C 1335.522 832.057, 1351.716 833.975, 1366.156 837.976 C 1370.173 839.089, 1373.766 840, 1374.140 840 C 1375.674 840, 1376.097 822.246, 1375.018 803.076 C 1373.703 779.703, 1373.878 779.007, 1381.793 776.121 C 1385.723 774.688, 1386.141 774.715, 1388.621 776.566 C 1394.747 781.140, 1409.346 815.836, 1417.607 845.453 C 1418.995 850.429, 1421.181 856.075, 1422.465 858 C 1423.749 859.925, 1425.078 862.400, 1425.419 863.500 C 1425.759 864.600, 1428.280 867.019, 1431.021 868.875 C 1445.496 878.681, 1463.752 897.648, 1476.028 915.637 C 1481.553 923.732, 1491.153 941.337, 1494.320 949.182 C 1495.020 950.917, 1497.230 948.265, 1505.979 935.188 C 1530.888 897.958, 1541.601 857.932, 1538.014 815.500 C 1534.517 774.133, 1528.021 747.022, 1516.385 725.230 C 1505.345 704.558, 1486.203 683.208, 1462.878 665.554 C 1452.918 658.016, 1452.907 658.011, 1448.705 658.981 C 1442.849 660.332, 1438.696 660.230, 1436.578 658.681 C 1434.851 657.418, 1434.866 657.184, 1436.927 653.143 C 1439.259 648.573, 1439.731 648.206, 1460.500 634.808 C 1473.201 626.615, 1500.229 607.053, 1501.353 605.240 C 1501.605 604.833, 1491.509 604.636, 1478.917 604.802 C 1462.238 605.022, 1452.700 604.672, 1443.785 603.512 C 1431.255 601.882, 1413.855 597.964, 1408.500 595.566 C 1406.850 594.827, 1404.375 593.888, 1403 593.480 C 1398.236 592.064, 1384.466 584.725, 1377.289 579.776 C 1369.004 574.064, 1356.827 561.720, 1351.374 553.509 C 1348.410 549.044, 1347.205 547.978, 1345.567 548.369 C 1339.998 549.701, 1336 550.144, 1336 549.431 C 1336 546.670, 1345.661 534.790, 1354.922 526.163 C 1368.646 513.377, 1380.614 497.533, 1385.517 485.659 C 1387.303 481.333, 1387.607 481.260, 1378.594 487.317 C 1368.881 493.845, 1352.764 500.891, 1340.928 503.784 C 1334.917 505.254, 1330 506.731, 1330 507.067 C 1330 507.404, 1331.237 508.278, 1332.750 509.009 C 1337.162 511.144, 1333.271 511.378, 1322.205 509.643 C 1316.867 508.806, 1309.125 507.859, 1305 507.537 C 1297.297 506.938, 1283.970 503.368, 1276 499.770 C 1262.391 493.626, 1241.008 482.392, 1234.248 477.834 C 1229.987 474.961, 1215.824 464.617, 1202.775 454.847 C 1177.419 435.864, 1167.617 429.071, 1151.043 418.994 C 1141.092 412.944, 1117.064 400.414, 1108.500 396.808 C 1089.795 388.933, 1070.010 382.299, 1047 376.189 C 996.890 362.881, 930.024 356.592, 876.500 360.153 M 1054.455 438.455 C 1053.105 439.805, 1052 442.059, 1052 443.465 C 1052 447.865, 1048.053 463.977, 1045.979 468.042 C 1041.963 475.914, 1029.203 489.604, 1019.142 496.836 C 1009.394 503.843, 987.501 513, 980.498 513 C 975.854 513, 967.856 515.212, 967.305 516.649 C 966.495 518.758, 970.625 522.691, 975.674 524.620 C 979.005 525.892, 981.768 526.143, 987.273 525.674 C 1010.312 523.713, 1038.138 506.277, 1053.782 484 C 1056.292 480.425, 1058.662 477.129, 1059.047 476.676 C 1059.991 475.567, 1062.155 490.772, 1062.138 498.393 C 1062.100 515.903, 1050.577 533.776, 1030.023 548.210 C 1020.835 554.661, 1009.584 565.517, 1010.518 567.029 C 1011.262 568.233, 1021.957 567.248, 1028.918 565.335 C 1036.897 563.143, 1044.334 557.947, 1055 547.113 C 1068.867 533.027, 1074.800 521.936, 1077.141 505.722 C 1078.246 498.074, 1078.181 495.388, 1076.642 484.853 C 1074.954 473.297, 1068.929 445.575, 1067.008 440.521 C 1065.134 435.593, 1058.421 434.488, 1054.455 438.455 M 602 706.887 C 596.170 708.167, 586.903 713.484, 579.332 719.892 C 560.260 736.034, 545.678 764.911, 537.869 802 C 536.999 806.128, 536.523 814.703, 536.564 825.500 C 536.639 845.376, 537.706 850.728, 546.538 875.563 C 555.770 901.520, 567.364 922.606, 582.036 940.124 C 588.463 947.798, 593.391 952.004, 595.944 951.994 C 599.722 951.981, 605.071 949.736, 606.164 947.706 C 607.724 944.807, 607.416 933.717, 605.465 922.500 C 603.253 909.790, 602.395 880.071, 603.957 870.283 C 605.815 858.630, 610.363 845.687, 616.528 834.500 C 622.861 823.010, 636.723 795.858, 638.085 792.278 L 639.003 789.862 636.252 791.833 C 630.916 795.656, 608.312 819.581, 603.989 825.981 C 591.276 844.803, 585.260 873.647, 587.862 903.304 C 588.547 911.112, 589.357 919.300, 589.662 921.500 C 590.212 925.464, 590.163 925.423, 584.178 917 C 572.593 900.694, 560.309 872.454, 553.946 847.500 C 550.774 835.061, 550.750 814.744, 553.890 801 C 560.883 770.390, 571.471 749.104, 587.533 733.364 C 597.555 723.542, 603.601 720.341, 615.436 718.591 C 627.359 716.829, 628.709 714.931, 621.794 709.656 C 618.081 706.825, 608.430 705.474, 602 706.887 M 1181.507 753.500 C 1181.888 754.600, 1183.295 762.250, 1184.632 770.500 C 1190.788 808.467, 1185.713 855.559, 1171.635 891.100 C 1169.230 897.170, 1167.555 901.769, 1167.911 901.318 C 1168.267 900.868, 1173.227 895.679, 1178.933 889.787 C 1187.656 880.779, 1189.109 878.836, 1188.062 877.575 C 1187.377 876.750, 1186.578 873.434, 1186.285 870.207 C 1185.786 864.699, 1185.922 864.206, 1188.511 862.170 C 1190.028 860.976, 1191.736 860, 1192.306 860 C 1192.876 860, 1195.274 862.015, 1197.634 864.478 L 1201.924 868.956 1210.811 863.072 C 1215.698 859.835, 1222.128 855.956, 1225.099 854.451 C 1228.069 852.947, 1231.481 851.074, 1232.679 850.289 L 1234.859 848.863 1232.360 842.181 C 1224.339 820.738, 1210.854 795.105, 1195.439 772 C 1184.381 755.427, 1180.293 749.998, 1181.507 753.500 M 1062.706 794.750 C 1060.773 823.433, 1049.194 855.594, 1028.233 890.499 L 1019.226 905.497 1021.950 908.999 C 1041.232 933.782, 1053.888 964.676, 1059.128 999.750 C 1059.806 1004.288, 1060.488 1008, 1060.643 1008 C 1060.799 1008, 1063.305 1007.061, 1066.213 1005.914 C 1079.790 1000.558, 1110.973 1003.491, 1122.154 1011.176 C 1123.614 1012.179, 1125.014 1013, 1125.266 1013 C 1125.517 1013, 1126.016 1009.063, 1126.376 1004.250 C 1127.737 986.005, 1132.003 967.782, 1138.690 951.642 C 1141.450 944.979, 1141.226 943.615, 1138.042 947.697 C 1133.305 953.771, 1114.297 973.512, 1107.809 979.096 C 1099.732 986.047, 1095.638 986.898, 1092.073 982.365 C 1089.458 979.041, 1089.472 975.214, 1092.127 967 C 1098.693 946.687, 1092.999 890.697, 1078.552 833.500 C 1074.220 816.353, 1064.907 786, 1063.976 786 C 1063.602 786, 1063.031 789.938, 1062.706 794.750 M 1391.062 825.500 C 1391.018 831, 1390.709 837.777, 1390.374 840.561 L 1389.766 845.622 1395.959 848.401 C 1399.366 849.930, 1402.376 850.958, 1402.648 850.685 C 1403.214 850.119, 1397.513 831.035, 1395.423 826.500 C 1394.662 824.850, 1393.388 821.700, 1392.591 819.500 C 1391.149 815.522, 1391.140 815.555, 1391.062 825.500 M 1311.500 846.698 C 1296.226 847.386, 1279.553 850.491, 1263.162 855.701 C 1253.452 858.787, 1253.907 856.252, 1259.253 877.500 C 1263.314 893.640, 1266.532 910.604, 1267.979 923.500 C 1268.535 928.450, 1269.622 936.550, 1270.396 941.500 C 1271.169 946.450, 1272.352 955.675, 1273.024 962 C 1273.697 968.325, 1274.534 974.760, 1274.885 976.300 L 1275.524 979.100 1286.135 973.709 C 1303.965 964.649, 1320.525 951.859, 1333.313 937.272 C 1345.108 923.817, 1353.130 910.658, 1363.047 888.500 C 1365.520 882.976, 1368.905 872.712, 1370.350 866.362 C 1371.239 862.449, 1372.215 858.605, 1372.517 857.817 C 1372.918 856.772, 1371.240 855.794, 1366.283 854.187 C 1350.766 849.155, 1327.515 845.977, 1311.500 846.698 M 858.500 848.621 C 836.560 850.451, 814.598 856.122, 796 864.759 C 744.849 888.515, 707.568 935.531, 696.297 990.500 C 691.065 1016.014, 692.510 1047.802, 700.041 1072.867 C 703.219 1083.445, 706.880 1093.196, 706.953 1091.280 C 707.044 1088.906, 712.297 1078.521, 717.432 1070.562 C 726.311 1056.802, 737.112 1044.818, 776.519 1005 C 821.797 959.251, 831.893 947.119, 850.171 916.500 C 864.899 891.826, 870.276 878.431, 873.993 857.153 C 874.506 854.213, 875.161 851.063, 875.446 850.153 C 875.893 848.734, 875.011 848.485, 869.233 848.394 C 865.530 848.335, 860.700 848.438, 858.500 848.621 M 909.151 858.250 C 911.944 865.163, 915.679 876.820, 917.858 885.430 L 919.612 892.359 924.556 885.542 C 932.386 874.745, 934.868 872.188, 938.238 871.448 C 940.885 870.866, 941.763 871.185, 943.696 873.433 C 944.963 874.906, 946 877.379, 946 878.927 C 946 882.673, 937.931 894.915, 929.724 903.620 L 923.237 910.500 924.059 915.500 C 924.511 918.250, 924.900 928.600, 924.923 938.500 C 924.966 956.681, 924.202 963.758, 920.078 983.415 C 918.934 988.869, 918.112 993.446, 918.253 993.586 C 918.901 994.235, 963.537 951.188, 971.822 941.924 C 982.822 929.624, 999 908.710, 999 906.790 C 999 905.298, 989.775 896.099, 980.500 888.342 C 969.156 878.855, 951.542 868.152, 937.988 862.508 C 929.558 858.999, 911.171 853, 908.843 853 C 907.130 853, 907.147 853.292, 909.151 858.250 M 889.626 858.112 C 885.771 883.229, 874.311 909.093, 852.477 941.954 C 838.288 963.309, 827.893 975.193, 789.019 1014.500 C 748.874 1055.092, 742.503 1061.979, 733.510 1074.500 C 725.421 1085.763, 719.818 1098.073, 717.514 1109.644 C 716.797 1113.242, 719.848 1118.953, 728.388 1130 C 756.901 1166.883, 793.827 1189.583, 840 1198.615 C 852.487 1201.058, 884.270 1201.103, 897 1198.697 C 936.705 1191.191, 967.261 1175.166, 994.500 1147.561 C 1021.818 1119.876, 1039.740 1083.409, 1044.082 1046.674 C 1049.032 1004.794, 1039.081 962.461, 1016.236 928.215 C 1013.197 923.658, 1010.367 920.058, 1009.948 920.215 C 1009.529 920.372, 1005.313 925.542, 1000.580 931.705 C 985.084 951.880, 963.402 974.047, 929.097 1004.789 C 922.169 1010.997, 914.510 1017.410, 912.079 1019.039 C 906.747 1022.609, 901.920 1022.920, 898.888 1019.888 C 897.074 1018.074, 896.854 1016.981, 897.331 1012.138 C 897.636 1009.037, 899.044 1002.450, 900.460 997.500 C 907.639 972.408, 909.369 961.008, 909.440 938.333 C 909.473 927.792, 909.226 918.892, 908.890 918.557 C 908.555 918.222, 904.444 918.919, 899.755 920.106 C 889.939 922.592, 885.069 922.160, 881.388 918.479 C 876.211 913.302, 880.020 907.728, 889.549 906.537 C 892.803 906.131, 897.836 904.911, 900.733 903.827 C 906.610 901.628, 906.358 902.841, 903.414 890.928 C 901.736 884.137, 893.407 859.655, 891.604 856.213 C 890.321 853.764, 890.289 853.794, 889.626 858.112 M 1385.579 869.250 C 1383.311 878.972, 1377.681 894.499, 1372.436 905.500 C 1360.325 930.903, 1342.856 952.853, 1321.436 969.579 C 1311.902 977.023, 1293.577 988.259, 1287.029 990.674 C 1284.538 991.593, 1281.985 992.732, 1281.356 993.207 C 1278.860 995.088, 1270.399 995.283, 1266.734 993.544 C 1261.224 990.929, 1260.812 989.466, 1257.008 959 C 1253.662 932.201, 1252.039 920.786, 1248.908 902 C 1247.106 891.193, 1247.474 891.582, 1243.243 896.011 C 1239.924 899.486, 1238.571 900.112, 1231.290 901.547 C 1223.829 903.017, 1222.592 903.023, 1217.743 901.614 C 1214.808 900.760, 1209.549 898.215, 1206.056 895.958 L 1199.706 891.854 1193.752 897.677 C 1167.013 923.829, 1150.035 956.017, 1142.418 995 C 1139.861 1008.091, 1139.815 1036.590, 1142.330 1050 C 1149.768 1089.657, 1164.821 1119.498, 1190.918 1146.322 C 1220.389 1176.614, 1259.359 1195.399, 1300.500 1199.144 C 1326.089 1201.474, 1353.647 1197.814, 1377.058 1188.976 C 1394.848 1182.261, 1419 1168.880, 1419 1165.740 C 1419 1163.591, 1408.566 1151.792, 1402.871 1147.500 C 1389.822 1137.666, 1387.496 1133.413, 1392.455 1128.455 C 1397.481 1123.428, 1404.113 1126.186, 1417.092 1138.698 C 1421.962 1143.393, 1427.103 1149.207, 1428.516 1151.617 C 1429.928 1154.028, 1431.490 1156, 1431.985 1156 C 1434.920 1156, 1452.552 1136.714, 1462.155 1123 C 1473.862 1106.281, 1485.064 1081.038, 1489.057 1062.375 C 1491.612 1050.434, 1491.990 1047.770, 1492.884 1035.469 C 1494.098 1018.749, 1492.573 999.270, 1489.015 986.056 C 1487.716 981.233, 1488.287 981.027, 1478.611 989.807 C 1469.671 997.920, 1455.682 1008.539, 1444 1016.080 C 1429.351 1025.536, 1429.434 1025.443, 1428.040 1034.097 C 1426.212 1045.444, 1418.143 1077.315, 1414.273 1088.477 C 1410.196 1100.233, 1408.181 1103.357, 1402.952 1106.025 C 1399.100 1107.990, 1399.065 1107.990, 1398.023 1106.042 C 1395.334 1101.019, 1395.690 1095.647, 1399.487 1083.936 C 1402.948 1073.263, 1412 1038.887, 1412 1036.417 C 1412 1035.808, 1409.462 1036.590, 1406.359 1038.155 C 1396.610 1043.072, 1391.061 1041.173, 1389.406 1032.351 C 1388.824 1029.248, 1389.468 1027.873, 1395.872 1018.550 C 1407.596 1001.482, 1411.926 991.942, 1415.412 975.500 C 1419.393 956.720, 1419.720 937.196, 1416.450 913.500 C 1414.588 900.002, 1410.817 879.177, 1409.456 874.867 C 1408.860 872.982, 1390.196 862, 1387.588 862 C 1387.413 862, 1386.509 865.263, 1385.579 869.250 M 1230.848 869.860 C 1226.174 872.481, 1220.251 876.132, 1217.686 877.974 C 1212.486 881.709, 1212.610 882.638, 1218.702 885.529 C 1221.900 887.046, 1223.295 887.107, 1230.938 886.063 C 1237.213 885.205, 1240.343 885.180, 1242.421 885.970 C 1243.992 886.567, 1245.446 886.887, 1245.653 886.680 C 1245.860 886.473, 1245.167 883.423, 1244.114 879.902 C 1243.060 876.381, 1241.912 871.828, 1241.561 869.785 C 1241.210 867.742, 1240.568 865.851, 1240.135 865.583 C 1239.701 865.315, 1235.523 867.240, 1230.848 869.860 M 1428.452 891.072 C 1428.830 893.507, 1429.544 896.850, 1430.038 898.500 C 1430.533 900.150, 1431.680 908.700, 1432.589 917.500 C 1436.225 952.715, 1432.220 984.736, 1421.467 1006.432 C 1419.577 1010.245, 1418.180 1013.513, 1418.362 1013.696 C 1418.927 1014.261, 1441.569 999.457, 1450.769 992.507 C 1461.034 984.752, 1480.680 967.466, 1481.973 965.051 C 1482.971 963.186, 1476.529 948.136, 1469.221 935.259 C 1460.995 920.764, 1445.479 901.778, 1433.487 891.533 L 1427.764 886.644 1428.452 891.072 M 1076.567 1018.799 C 1075.504 1019.029, 1071.415 1020.684, 1067.480 1022.478 L 1060.325 1025.738 1059.242 1041.119 C 1058.294 1054.574, 1057.085 1062.679, 1054.443 1073.305 L 1053.746 1076.110 1060.123 1072.047 C 1069.619 1065.996, 1078.530 1063.604, 1088.688 1064.378 C 1093.191 1064.721, 1098.058 1065.452, 1099.503 1066.001 C 1101.254 1066.667, 1102.755 1066.667, 1104 1066 C 1106.380 1064.726, 1113.462 1064.723, 1118.035 1065.993 C 1119.979 1066.533, 1123.725 1068.342, 1126.360 1070.013 C 1130.190 1072.443, 1131.045 1072.696, 1130.621 1071.276 C 1128.634 1064.623, 1126.373 1050.218, 1125.437 1038.250 C 1124.950 1032.021, 1124.438 1030, 1123.347 1030 C 1122.552 1030, 1119.337 1028.215, 1116.201 1026.033 C 1108.650 1020.779, 1097.900 1017.915, 1086.741 1018.183 C 1082.208 1018.292, 1077.630 1018.569, 1076.567 1018.799 M 1205.052 1023.948 C 1203.507 1025.493, 1203.005 1026.882, 1203.408 1028.491 C 1203.979 1030.763, 1203.871 1030.799, 1198.027 1030.269 C 1188.319 1029.388, 1183.918 1034.009, 1189.319 1039.410 L 1191.638 1041.729 1188.262 1042.950 C 1184.062 1044.469, 1182.440 1048.059, 1184.248 1051.832 C 1185.762 1054.991, 1191.284 1058.034, 1203.637 1062.516 C 1208.663 1064.340, 1214.098 1066.516, 1215.715 1067.353 C 1217.333 1068.189, 1228.071 1072.102, 1239.578 1076.047 C 1265.076 1084.790, 1298.200 1097.147, 1306.500 1101.013 C 1307.600 1101.526, 1310.939 1102.881, 1313.919 1104.025 C 1319.760 1106.266, 1325.583 1108.841, 1333.500 1112.684 C 1346.284 1118.890, 1355.134 1122, 1360.012 1122 C 1364.678 1122, 1365 1121.837, 1365 1119.478 C 1365 1115.903, 1358.217 1108.927, 1351.002 1105.082 C 1347.701 1103.322, 1345 1101.712, 1345 1101.504 C 1345 1101.296, 1346.463 1101.349, 1348.250 1101.621 C 1350.358 1101.943, 1352.835 1101.423, 1355.298 1100.142 C 1358.279 1098.591, 1359.782 1098.364, 1362.291 1099.083 C 1367.432 1100.558, 1370 1100.245, 1370 1098.145 C 1370 1095.913, 1361.087 1087.279, 1354.415 1083.048 C 1350.716 1080.702, 1350.114 1080, 1351.804 1080 C 1353.012 1080, 1354 1079.522, 1354 1078.938 C 1354 1078.354, 1350.737 1074.726, 1346.750 1070.876 C 1337.650 1062.089, 1328.243 1057.306, 1298.651 1046.422 C 1291.968 1043.964, 1285.600 1041.534, 1284.500 1041.022 C 1280.778 1039.289, 1238.549 1026.117, 1231.500 1024.490 C 1227.650 1023.601, 1220.625 1022.615, 1215.889 1022.298 C 1207.913 1021.764, 1207.114 1021.886, 1205.052 1023.948 M 968.500 1031.112 C 951.810 1035.311, 946.936 1036.707, 935 1040.706 C 921.123 1045.357, 914.674 1047.895, 890.500 1058.219 C 873.188 1065.613, 867.132 1068.421, 829.500 1086.503 C 812.633 1094.607, 810.536 1096.029, 807.940 1101.119 C 805.556 1105.791, 805.924 1106.708, 810.535 1107.573 C 812.441 1107.930, 814 1108.579, 814 1109.015 C 814 1109.450, 810.737 1111.461, 806.750 1113.484 C 798.307 1117.765, 796.604 1119.140, 793.299 1124.343 C 789.750 1129.930, 790.633 1131, 798.791 1131 C 804.837 1131, 806.698 1130.489, 814.573 1126.663 C 823.324 1122.413, 823.555 1122.360, 826.274 1124.015 L 829.049 1125.702 824.985 1128.391 C 820.574 1131.310, 817.010 1136.293, 817.004 1139.550 C 816.993 1145.402, 824 1145.534, 834.702 1139.883 C 878.247 1116.893, 912.902 1101.259, 944.500 1090.348 C 959.076 1085.315, 972.084 1079.220, 982.500 1072.545 C 986.350 1070.077, 989.831 1067.933, 990.236 1067.779 C 990.641 1067.626, 991.266 1065.354, 991.625 1062.732 C 992.540 1056.043, 990.581 1054, 983.256 1054 L 977.822 1054 980.411 1050.923 C 981.835 1049.231, 983 1047.094, 983 1046.173 C 983 1045.253, 984.575 1043.243, 986.500 1041.707 C 988.425 1040.171, 990 1038.065, 990 1037.025 C 990 1032.245, 977.577 1028.828, 968.500 1031.112 M 1076.268 1081.389 C 1064.450 1085.838, 1059.182 1092.174, 1054.557 1107.500 C 1049.706 1123.577, 1048.496 1135.144, 1048.544 1165 C 1048.649 1230.689, 1054.329 1281, 1061.639 1281 C 1066.594 1281, 1073.037 1274.576, 1082.788 1259.911 C 1089.786 1249.386, 1094.809 1244, 1097.626 1244 C 1100.705 1244, 1105.802 1247.572, 1114.474 1255.807 C 1128.090 1268.736, 1135.504 1272.681, 1137.860 1268.250 C 1141.133 1262.097, 1144.007 1239.149, 1144.003 1219.215 C 1143.999 1203.130, 1139.441 1144.809, 1136.991 1129.500 C 1132.333 1100.395, 1128.554 1090.609, 1119.445 1084.068 C 1115.492 1081.229, 1113.751 1080.632, 1109.096 1080.522 C 1106.018 1080.449, 1102.646 1080.803, 1101.603 1081.308 C 1100.420 1081.882, 1098.349 1081.840, 1096.103 1081.197 C 1088.048 1078.892, 1082.765 1078.943, 1076.268 1081.389 M 604.915 1121.524 C 581.908 1125.408, 555.129 1144.981, 544.748 1165.502 C 539.793 1175.296, 538.497 1182.903, 538.529 1202 C 538.561 1221.064, 539.810 1227.953, 545.980 1243.115 C 555.531 1266.585, 574.932 1285.034, 598.409 1292.969 C 615.249 1298.662, 641.784 1298.831, 658.500 1293.353 C 668.390 1290.112, 668.355 1290.133, 666.926 1288.411 C 665.957 1287.243, 666.343 1287, 669.166 1287 C 671.042 1287, 674.342 1286.100, 676.500 1285 C 682.173 1282.108, 685.491 1282.393, 688.158 1286 C 689.462 1287.763, 691.289 1289, 692.592 1289 C 693.811 1289, 701.488 1290.984, 709.654 1293.409 C 723.221 1297.438, 748.414 1303.850, 757 1305.459 C 758.925 1305.820, 763.200 1306.753, 766.500 1307.532 C 785.988 1312.137, 837.359 1319.942, 874.500 1323.941 C 911.659 1327.942, 920.061 1328.260, 972.680 1327.654 C 1017.912 1327.133, 1044.399 1326.264, 1066.500 1324.576 C 1070.350 1324.282, 1083.175 1323.572, 1095 1322.999 C 1106.825 1322.425, 1121.675 1321.302, 1128 1320.503 C 1134.325 1319.704, 1145.800 1318.355, 1153.500 1317.505 C 1169.330 1315.758, 1187.072 1313.358, 1194.500 1311.960 C 1197.250 1311.442, 1203.775 1310.315, 1209 1309.456 C 1226.045 1306.653, 1228.292 1306.179, 1246 1301.636 C 1272.703 1294.786, 1274.254 1294.339, 1293 1288.076 C 1318.308 1279.620, 1330.190 1274.745, 1350.844 1264.339 C 1392.768 1243.218, 1413.131 1224.339, 1421.319 1199 C 1423.001 1193.797, 1424.475 1184, 1423.577 1184 C 1423.241 1184, 1419.526 1186.088, 1415.321 1188.641 C 1396.573 1200.022, 1374.996 1207.991, 1350.062 1212.743 C 1334.846 1215.643, 1287.309 1214.563, 1275.500 1211.049 C 1273.850 1210.558, 1268.675 1209.156, 1264 1207.933 C 1247.472 1203.610, 1227.686 1194.884, 1212.820 1185.361 C 1190.901 1171.320, 1166.277 1146.602, 1154.681 1127 C 1151.563 1121.730, 1151.610 1121.407, 1153.462 1135.500 C 1156.102 1155.578, 1159.207 1201.235, 1159.209 1220 C 1159.216 1270.276, 1150.878 1289.061, 1130.386 1284.942 C 1123.914 1283.642, 1117.242 1279.429, 1107.168 1270.281 L 1099.218 1263.062 1094.004 1271.088 C 1080.018 1292.614, 1065.880 1300.744, 1053.475 1294.395 C 1040.304 1287.654, 1036.242 1265.859, 1032.993 1184.500 C 1031.976 1159.029, 1032.600 1139.706, 1034.882 1126 C 1035.386 1122.975, 1035.619 1120.312, 1035.399 1120.083 C 1035.180 1119.854, 1035 1120.162, 1035 1120.767 C 1035 1122.715, 1021.901 1141.222, 1013.956 1150.500 C 985.927 1183.232, 945.178 1206.182, 902.189 1213.447 C 879.102 1217.349, 846.900 1216.190, 822.715 1210.588 C 804.852 1206.450, 781.071 1196.212, 764.500 1185.527 C 748.459 1175.184, 729.383 1157.800, 718.694 1143.784 L 713.526 1137.007 712.259 1140.753 C 708.813 1150.945, 700.276 1151.683, 686.360 1142.993 C 684.577 1141.879, 684.004 1141.996, 682.148 1143.852 C 680.967 1145.033, 679.536 1146, 678.968 1146 C 675.881 1146, 670.686 1142.373, 664.096 1135.619 C 655.416 1126.722, 651.712 1124.719, 638.959 1122.028 C 628.230 1119.763, 616.383 1119.588, 604.915 1121.524 M 610.853 1157.993 C 605.568 1163.278, 608.729 1167.834, 620.707 1172.197 C 629.270 1175.315, 644.206 1183.857, 643.394 1185.171 C 643.113 1185.627, 641.405 1186, 639.601 1186 C 634.910 1186, 624.800 1191.372, 620.469 1196.166 C 618.435 1198.418, 615.585 1202.789, 614.135 1205.880 C 611.848 1210.758, 611.508 1212.754, 611.557 1221 C 611.626 1232.331, 613.649 1237.485, 620.798 1244.532 C 626.481 1250.135, 633.371 1253.559, 643.003 1255.568 C 648.953 1256.808, 651.371 1256.894, 654.979 1255.993 C 660.203 1254.688, 669 1249.381, 669 1247.535 C 669 1245.767, 658.760 1242.052, 651.011 1241.008 C 642.404 1239.848, 638.423 1238.565, 634.066 1235.546 C 628.920 1231.979, 626.732 1227.743, 626.606 1221.102 C 626.477 1214.278, 629.005 1208.927, 634.424 1204.553 L 638.208 1201.500 653.034 1201.500 L 667.861 1201.500 670.930 1198.563 C 673.928 1195.695, 674.791 1192.226, 673.407 1188.617 C 672.729 1186.851, 656.413 1174.142, 647.589 1168.507 C 638.655 1162.802, 629.239 1158.442, 621.936 1156.629 C 613.638 1154.570, 614.366 1154.480, 610.853 1157.993 M 752.879 1326.441 C 745.322 1331.987, 725.501 1355.834, 727.110 1357.443 C 727.337 1357.671, 739.668 1358.353, 754.512 1358.960 C 804.379 1360.997, 819.818 1361.930, 830.186 1363.529 C 842.273 1365.394, 858.021 1369.074, 866.500 1372.016 C 875.750 1375.224, 897.604 1380.705, 906.500 1382.047 C 915.050 1383.337, 922.564 1385.039, 941.228 1389.913 C 947.678 1391.597, 957.128 1393.448, 962.228 1394.025 C 974.119 1395.372, 995.936 1398.867, 997.385 1399.657 C 1002.196 1402.280, 988.558 1391.611, 976 1382.926 C 956.892 1369.713, 945.709 1362.881, 929.242 1354.362 C 922.234 1350.736, 915.572 1346.770, 914.439 1345.549 C 912.569 1343.533, 910.809 1343.215, 895.439 1342.112 C 859.683 1339.545, 806.875 1332.251, 771.045 1324.932 C 758.743 1322.418, 758.311 1322.454, 752.879 1326.441 M 1196.500 1330.395 C 1169.417 1341.795, 1156.008 1349.821, 1135.940 1366.646 C 1113.794 1385.213, 1104.168 1393.501, 1104.437 1393.770 C 1104.590 1393.924, 1108.267 1393.396, 1112.608 1392.598 C 1123.125 1390.665, 1133.880 1389.301, 1149 1387.982 C 1185.566 1384.791, 1192.385 1382.932, 1220.839 1368.393 C 1232.026 1362.677, 1241.813 1358, 1242.589 1358 C 1243.365 1358, 1244 1357.614, 1244 1357.143 C 1244 1356.243, 1207.946 1328.282, 1205.762 1327.487 C 1205.068 1327.235, 1200.900 1328.543, 1196.500 1330.395 M 1140 1334.986 C 1128.292 1336.941, 1106.120 1338.524, 1057 1340.911 C 1044.625 1341.513, 1024.825 1342.494, 1013 1343.093 C 1001.175 1343.691, 980.792 1344.194, 967.704 1344.211 C 954.616 1344.228, 944.041 1344.369, 944.204 1344.525 C 944.367 1344.681, 947.200 1346.281, 950.500 1348.079 C 965.281 1356.136, 1003.494 1382.341, 1018 1394.368 C 1022.675 1398.245, 1032.015 1406.864, 1038.756 1413.523 L 1051.013 1425.629 1052.666 1423.106 C 1060.286 1411.477, 1119.797 1357.869, 1145.355 1339.611 L 1153.210 1334 1148.855 1334.118 C 1146.460 1334.182, 1142.475 1334.573, 1140 1334.986 M 1229.557 1409.223 C 1227.391 1412.315, 1227.540 1423.521, 1229.938 1437.889 C 1233.892 1461.569, 1234.318 1468.338, 1233.689 1497.442 C 1233.076 1525.796, 1232.173 1537.486, 1229.393 1553.049 L 1227.866 1561.599 1208.183 1563.320 C 1197.357 1564.266, 1185.912 1565.279, 1182.750 1565.570 C 1179.047 1565.911, 1177 1565.724, 1177 1565.044 C 1177 1564.463, 1178.110 1555.328, 1179.468 1544.744 C 1182.587 1520.420, 1187 1470.021, 1187 1458.724 C 1187 1447.724, 1185.316 1443.067, 1181.321 1443.015 C 1175.782 1442.943, 1173.138 1455.606, 1169.002 1502 C 1166.507 1529.979, 1162.451 1560.905, 1160.536 1566.545 C 1159.780 1568.773, 1158.853 1573.949, 1158.477 1578.048 C 1157.588 1587.729, 1152.074 1613.655, 1147.006 1631.986 C 1143.261 1645.527, 1142.107 1654.508, 1143.607 1658.418 C 1143.964 1659.347, 1145.387 1660, 1147.057 1660 C 1149.198 1660, 1150.819 1658.901, 1153.617 1655.553 L 1157.335 1651.106 1163.510 1651.683 C 1181.308 1653.345, 1202.835 1643.633, 1215.567 1628.198 C 1224.882 1616.905, 1235.278 1594.502, 1240.462 1574.551 C 1244.875 1557.564, 1246.955 1539.492, 1248.212 1507.189 C 1249.120 1483.876, 1249.120 1473.601, 1248.210 1462.689 C 1246.823 1446.040, 1242.598 1419.366, 1240.584 1414.547 C 1237.615 1407.442, 1232.525 1404.984, 1229.557 1409.223 M 775.702 1446.942 C 774.114 1448.829, 772.622 1452.684, 771.540 1457.692 C 767.308 1477.286, 765.559 1483.244, 757.459 1505.634 C 744.258 1542.126, 741.181 1551.376, 737.445 1565.793 C 734.227 1578.210, 732.867 1591, 734.765 1591 C 735.186 1591, 736.370 1593.362, 737.395 1596.250 C 741.808 1608.678, 749.691 1617.111, 762.513 1623.119 C 775.370 1629.144, 782.005 1630.408, 800.500 1630.354 C 814.517 1630.313, 817.739 1629.979, 826.500 1627.664 C 840.076 1624.075, 849.059 1619.430, 857.668 1611.549 C 865.713 1604.185, 869.425 1598.732, 873.359 1588.500 C 874.840 1584.650, 876.646 1580.150, 877.373 1578.500 C 879.421 1573.855, 887.544 1539.920, 892.542 1515.130 C 895.023 1502.827, 898.166 1488.050, 899.526 1482.292 C 903.570 1465.179, 902.658 1460, 895.603 1460 C 888.688 1460, 887.134 1464.417, 878.011 1510 C 873.864 1530.719, 866.570 1561.413, 865.461 1562.809 C 865.326 1562.979, 855.380 1560.376, 843.358 1557.024 C 819.033 1550.243, 790.456 1544.461, 773 1542.789 C 766.675 1542.183, 761.371 1541.591, 761.213 1541.474 C 761.056 1541.356, 761.861 1538.890, 763.003 1535.992 C 771.605 1514.170, 781.256 1484.551, 784.412 1470.291 C 786.386 1461.376, 788 1452.813, 788 1451.263 C 788 1443.954, 780.449 1441.301, 775.702 1446.942 M 755.065 1559.368 C 750.876 1572.333, 749.217 1581.019, 750.142 1585.137 C 751.480 1591.091, 756.736 1600.596, 760.417 1603.718 C 764.997 1607.602, 776.449 1612.557, 785.403 1614.528 C 800.064 1617.757, 822.766 1614.751, 836.452 1607.770 C 843.544 1604.152, 853.881 1593.295, 857.656 1585.500 L 861.046 1578.500 852.273 1575.672 C 827.401 1567.653, 781.660 1557.948, 762.789 1556.685 L 756.077 1556.236 755.065 1559.368 M 1213 1578.028 C 1209.975 1578.439, 1200.016 1579.117, 1190.868 1579.535 L 1174.236 1580.296 1171.500 1594.398 C 1169.995 1602.154, 1167.278 1614.571, 1165.461 1621.990 C 1163.032 1631.912, 1162.468 1635.677, 1163.329 1636.225 C 1165.228 1637.433, 1170.262 1637.111, 1175.965 1635.418 C 1186.397 1632.320, 1192.298 1628.811, 1200.118 1621.055 C 1206.772 1614.456, 1208.509 1611.919, 1213.854 1601 C 1217.219 1594.125, 1220.854 1585.912, 1221.932 1582.750 L 1223.892 1577 1221.196 1577.141 C 1219.713 1577.218, 1216.025 1577.618, 1213 1578.028" stroke="none" fill="#f38ba8" fill-rule="evenodd"/></svg>
